<svg width="30" height="30" viewBox="0 0 30 30" fill="none" xmlns="http://www.w3.org/2000/svg">
<g clip-path="url(#clip0)">
<path d="M29.9999 14.9774C30.0376 23.1983 23.3416 29.917 15.0376 29.9925C6.83177 30.0755 0.0300528 23.304 -0.00014354 15.0151C-0.0303398 6.77906 6.74118 0 14.9999 0C23.251 0 29.9621 6.70357 29.9999 14.9774ZM16.3662 17.378C16.7362 17.8007 17.091 18.2235 17.476 18.616C17.7855 18.9331 17.9817 18.918 18.329 18.6311C18.7819 18.2536 19.2273 17.8611 19.6727 17.4761C20.103 17.0986 20.1257 16.9779 19.7633 16.54C19.2802 15.9512 19.0613 15.2944 19.0688 14.5244C19.0915 13.0372 19.0915 11.5576 19.0688 10.0705C19.0386 8.11525 18.178 7.02818 16.2908 6.56769C15.0452 6.25818 13.792 6.29592 12.5691 6.71112C11.1725 7.18671 10.2364 8.1077 9.89669 9.57977C9.79855 10.0176 9.88159 10.161 10.327 10.2214C10.8781 10.2969 11.4292 10.3498 11.9727 10.4177C12.4785 10.4781 12.5615 10.4328 12.7125 9.96477C13.022 8.98339 14.1242 8.42476 15.0678 8.83241C15.3622 8.96074 15.7019 9.24006 15.7925 9.51938C15.9586 10.0403 15.9586 10.6064 16.0265 11.1877C15.7623 11.2104 15.6113 11.2104 15.4679 11.233C14.5016 11.384 13.5127 11.4519 12.5691 11.7011C10.4251 12.2748 9.3758 13.7469 9.48149 15.8832C9.55698 17.3855 10.4553 18.5632 11.8368 18.8349C13.3844 19.1444 14.8187 18.8878 15.9963 17.7328C16.1322 17.6044 16.2606 17.4836 16.3662 17.378ZM14.6602 23.6814C16.8796 23.6059 19.1519 22.9039 21.2128 21.5224C21.3411 21.4394 21.4996 21.3563 21.5525 21.2355C21.628 21.0619 21.7185 20.7901 21.6355 20.6693C21.5374 20.5184 21.2807 20.458 21.0769 20.4127C20.9712 20.39 20.8428 20.4882 20.7296 20.5335C20.0124 20.7901 19.2953 21.077 18.5706 21.3035C15.3471 22.2924 12.2218 22.1112 9.22482 20.4731C8.53031 20.0956 7.82825 19.7257 7.13373 19.3483C6.88461 19.2124 6.65059 19.1671 6.46941 19.4313C6.29578 19.688 6.43167 19.8918 6.63549 20.0428C7.68481 20.8203 8.69639 21.6583 9.791 22.3603C11.1876 23.2436 12.7502 23.6739 14.6602 23.6814ZM22.4357 19.7484C22.3904 20.0277 22.3904 20.1636 22.3451 20.2994C22.2092 20.7524 22.0356 21.2053 21.9224 21.6658C21.8846 21.8093 21.9375 22.0508 22.0356 22.1188C22.1413 22.1943 22.3527 22.1414 22.5187 22.1112C22.5942 22.0961 22.6546 22.0055 22.715 21.9451C23.3718 21.2129 23.6888 20.3447 23.7039 19.3634C23.7115 18.9784 23.5379 18.7443 23.1529 18.6764C22.2394 18.5103 21.3486 18.5556 20.5182 19.0237C20.2616 19.1671 19.9294 19.3256 20.0804 19.7031C20.2238 20.0503 20.5484 19.8918 20.8127 19.8692C21.326 19.8239 21.8469 19.7937 22.4357 19.7484Z" fill="white"/>
<path d="M15.9738 12.9618C15.9889 13.9809 16.0644 14.9547 15.5133 15.8304C15.1887 16.3437 14.7584 16.6985 14.1243 16.7514C13.4977 16.8042 13.0297 16.4947 12.8108 15.8983C12.4107 14.7886 12.8938 13.6714 13.9809 13.226C14.6074 12.9618 15.2717 12.9391 15.9738 12.9618Z" fill="white"/>
</g>
<defs>
<clipPath id="clip0">
<rect width="30" height="30" fill="white"/>
</clipPath>
</defs>
</svg>
