<svg width="1200" height="800" viewBox="0 0 1200 800" fill="none" xmlns="http://www.w3.org/2000/svg">
<rect y="57" width="1200" height="743" fill="#F4F7FC"/>
<path d="M277.463 521.597C68.2895 521.597 1.73424 342.848 -51.51 342.848L-42.0021 -317H1199.73V437.927C1166.77 397.36 1069.28 316.226 943.016 316.226C785.185 316.226 695.811 396.093 534.177 462.648C404.869 515.892 309.156 524.132 277.463 521.597Z" fill="#FE7843"/>
<mask id="mask0" mask-type="alpha" maskUnits="userSpaceOnUse" x="-54" y="-317" width="1252" height="839">
<path d="M275.562 521.597C66.3879 521.597 -0.167374 342.848 -53.4116 342.848L-43.9037 -317H1197.83V437.927C1164.87 397.36 1067.38 316.226 941.115 316.226C783.284 316.226 693.909 396.093 532.275 462.648C402.968 515.892 307.255 524.132 275.562 521.597Z" fill="#FE7843"/>
</mask>
<g mask="url(#mask0)">
<path d="M99.8811 79.6921C-1.02274 127.395 -30.1688 239.868 -32.1288 290.141L-266.867 301.052L-293 -261.209L649.167 -305C628.711 -236.662 569.728 -86.6709 497.44 -33.4156C407.081 33.1537 226.011 20.063 99.8811 79.6921Z" fill="#FF956D"/>
</g>
<ellipse opacity="0.2" cx="590.421" cy="150.669" rx="395.793" ry="159.06" transform="rotate(-22.2177 590.421 150.669)" fill="url(#paint0_linear)"/>
<circle cx="1204" cy="136" r="59" fill="#F28E1F"/>
<g filter="url(#filter0_d)">
<circle cx="356" cy="513" r="27" fill="#FBC831"/>
</g>
<defs>
<filter id="filter0_d" x="313" y="474" width="86" height="86" filterUnits="userSpaceOnUse" color-interpolation-filters="sRGB">
<feFlood flood-opacity="0" result="BackgroundImageFix"/>
<feColorMatrix in="SourceAlpha" type="matrix" values="0 0 0 0 0 0 0 0 0 0 0 0 0 0 0 0 0 0 127 0"/>
<feOffset dy="4"/>
<feGaussianBlur stdDeviation="8"/>
<feColorMatrix type="matrix" values="0 0 0 0 0 0 0 0 0 0 0 0 0 0 0 0 0 0 0.2 0"/>
<feBlend mode="normal" in2="BackgroundImageFix" result="effect1_dropShadow"/>
<feBlend mode="normal" in="SourceGraphic" in2="effect1_dropShadow" result="shape"/>
</filter>
<linearGradient id="paint0_linear" x1="634.08" y1="409.38" x2="617.454" y2="152.214" gradientUnits="userSpaceOnUse">
<stop stop-color="#C4C4C4"/>
<stop offset="1" stop-color="#C4C4C4" stop-opacity="0"/>
</linearGradient>
</defs>
</svg>
