<svg width="22" height="22" viewBox="0 0 22 22" fill="none" xmlns="http://www.w3.org/2000/svg">
<path d="M9.09975 11.8485C9.17026 12.0606 9.34523 12.2204 9.563 12.272C9.78901 12.3242 10.014 12.2528 10.1666 12.1002L11 11.2669L11.8334 12.1003C12.0851 12.352 12.493 12.352 12.7448 12.1003C12.9965 11.8485 12.9965 11.4406 12.7448 11.1888L11.9114 10.3555L12.7448 9.52209C12.9028 9.36409 12.9676 9.13563 12.9166 8.91847C12.865 8.7007 12.7051 8.52569 12.493 8.45522L8.62585 7.16616C8.39296 7.08813 8.13802 7.14914 7.96619 7.32162C7.79372 7.49409 7.7333 7.74963 7.81073 7.98127L9.09975 11.8485ZM11.0957 9.34841L9.99294 10.4512L9.44092 8.79639L11.0957 9.34841ZM21.3555 14.8672H20.7109V3.91016C20.7109 2.84393 19.8436 1.97656 18.7773 1.97656H3.22266C2.15643 1.97656 1.28906 2.84393 1.28906 3.91016V14.8672H0.644531C0.288277 14.8672 0 15.1555 0 15.5117C0 17.9992 2.02421 20.0234 4.51172 20.0234H17.4883C19.9758 20.0234 22 17.9992 22 15.5117C22 15.1555 21.7117 14.8672 21.3555 14.8672ZM2.57812 3.91016C2.57812 3.55455 2.86705 3.26562 3.22266 3.26562H18.7773C19.133 3.26562 19.4219 3.55455 19.4219 3.91016V14.8672H14.8672C14.696 14.8672 14.5323 14.9352 14.4115 15.056L13.3112 16.1562H8.68875L7.58854 15.056C7.46767 14.9352 7.304 14.8672 7.13281 14.8672H2.57812V3.91016ZM17.4883 18.7344H4.51172C2.95513 18.7344 1.65348 17.6253 1.3539 16.1562H6.86593L7.96615 17.2565C8.08702 17.3773 8.25069 17.4453 8.42188 17.4453H13.5781C13.7493 17.4453 13.913 17.3773 14.0338 17.2565L15.1341 16.1562H20.6461C20.3465 17.6253 19.0449 18.7344 17.4883 18.7344Z" fill="#F69B37"/>
</svg>
