<svg width="30" height="30" viewBox="0 0 30 30" fill="none" xmlns="http://www.w3.org/2000/svg">
<path fill-rule="evenodd" clip-rule="evenodd" d="M10.7381 0.700985C3.43358 2.66749 -1.27242 10.505 0.304581 18.078C1.95558 26.006 9.93908 31.1995 17.9201 29.5375C30.6306 26.8905 33.9466 9.85649 23.1391 2.72599C19.1901 0.120485 15.2716 -0.519015 10.7381 0.700985ZM20.8421 5.46999C20.8421 7.38499 20.7901 7.44399 18.9671 7.59499C17.2551 7.73649 17.0786 7.89149 16.9356 9.37499C16.7811 10.9735 16.8126 11 18.8641 11C20.5601 11 20.8926 11.1475 20.6456 11.791C20.4786 12.226 20.3421 13.126 20.3421 13.791C20.3421 14.8395 20.1096 15 18.5921 15H16.8421V20.75V26.5H14.3421H11.8421V20.75V15H10.3421C8.92558 15 8.84208 14.889 8.84208 13C8.84208 11.111 8.92558 11 10.3421 11C11.8006 11 11.8421 10.934 11.8421 8.59549C11.8421 4.81499 13.3796 3.53949 17.9671 3.51499L20.8421 3.49999V5.46999Z" fill="white"/>
</svg>
