<svg width="30" height="31" viewBox="0 0 30 31" fill="none" xmlns="http://www.w3.org/2000/svg">
<path d="M15.45 30.9995C15.15 30.9995 14.85 30.9995 14.55 30.9995C14.4925 30.9919 14.435 30.9794 14.3775 30.9743C13.9025 30.9316 13.4225 30.904 12.95 30.8437C11.635 30.6778 10.3675 30.326 9.15 29.7983C6.13 28.4915 3.77 26.4183 2.0875 23.5786C0.8 21.3974 0.115 19.0326 0.0275 16.4945C0.025 16.4292 0.01 16.3638 0 16.2985C0 16.0723 0 15.8462 0 15.62C0.01 15.522 0.02 15.4215 0.03 15.3235C0.075 14.8108 0.1 14.2957 0.1725 13.788C0.415 12.1119 0.9475 10.5287 1.7375 9.03096C2.345 7.88252 3.085 6.82707 3.965 5.87465C5.4 4.31911 7.08 3.10785 9.015 2.25595C10.8675 1.43923 12.805 1.02961 14.825 0.999457C15.3275 0.991918 15.83 1.03213 16.3325 1.06479C17.0525 1.11254 17.7625 1.23568 18.4625 1.40405C20.3075 1.84382 22.0075 2.60777 23.565 3.69589C24.775 4.54025 25.8375 5.54042 26.7525 6.69891C27.6675 7.85488 28.4025 9.11891 28.9475 10.491C29.105 10.8906 29.2575 11.2952 29.38 11.7048C29.69 12.7452 29.8825 13.8107 29.95 14.8963C29.965 15.13 29.985 15.3612 30 15.5949C30 15.8386 30 16.0799 30 16.3236C29.9925 16.3714 29.98 16.4216 29.975 16.4694C29.955 16.7534 29.9425 17.0373 29.92 17.3213C29.8475 18.236 29.6775 19.1357 29.4275 20.0177C28.0325 24.9733 24.2175 28.8735 19.315 30.3562C18.26 30.6753 17.1825 30.8763 16.08 30.9467C15.8725 30.9643 15.66 30.9844 15.45 30.9995ZM15.5025 10.8353C15.46 10.8051 15.4225 10.785 15.3925 10.7599C14.3325 9.82004 13.105 9.25964 11.695 9.09881C10.8975 9.00834 10.1075 9.05106 9.33 9.23702C5.795 10.0889 3.5375 13.5443 4.195 17.1378C4.5875 19.2839 5.7675 20.8948 7.6625 21.9502C9.2075 22.8122 10.865 22.978 12.5775 22.5986C14.11 22.2593 15.3725 21.4727 16.2625 20.1585C17.37 18.5225 17.6675 16.7106 17.3275 14.7782C17.3125 14.6877 17.27 14.6575 17.1775 14.66C15.1325 14.6626 13.0875 14.6626 11.04 14.66C10.9225 14.66 10.8925 14.6977 10.895 14.8108C10.9 15.4944 10.8975 16.1754 10.9 16.8589C10.9 17.0323 10.9 17.0323 11.0675 17.0323C12.28 17.0323 13.4925 17.0323 14.705 17.0298C14.7575 17.0298 14.81 17.0298 14.8675 17.0298C14.8725 17.0599 14.8775 17.075 14.8775 17.0926C14.8775 17.1177 14.8775 17.1429 14.8725 17.168C14.675 18.2963 14.1025 19.1709 13.1225 19.7589C12.5575 20.0981 11.9375 20.2514 11.285 20.2992C10.48 20.3595 9.715 20.2213 9 19.8494C7.31 18.9698 6.3925 17.1378 6.68 15.238C6.98 13.2402 8.5675 11.7274 10.565 11.549C11.6975 11.4485 12.705 11.7651 13.575 12.5064C13.61 12.5366 13.645 12.5642 13.685 12.5969C14.285 12.0139 14.8825 11.4359 15.5025 10.8353ZM24.36 14.6626C24.355 14.6198 24.35 14.5922 24.35 14.5646C24.3525 13.6724 24.3525 12.7803 24.355 11.8882C24.355 11.7249 24.3575 11.7249 24.2025 11.7249C23.5225 11.7249 22.845 11.7274 22.165 11.7224C22.045 11.7224 22.01 11.7525 22.01 11.8757C22.015 12.7552 22.015 13.6347 22.015 14.5143C22.015 14.5595 22.015 14.6048 22.015 14.6626C21.95 14.6626 21.9 14.6626 21.8525 14.6626C20.9725 14.6626 20.095 14.6651 19.215 14.66C19.1075 14.66 19.07 14.6877 19.07 14.8008C19.075 15.4918 19.0775 16.1829 19.0725 16.874C19.0725 17.0021 19.1075 17.0373 19.235 17.0348C20.105 17.0298 20.9775 17.0298 21.8475 17.0298C21.9 17.0298 21.9525 17.0298 22.02 17.0298C22.02 18.0224 22.02 18.9949 22.02 19.975C22.08 19.975 22.1275 19.975 22.1725 19.975C22.8475 19.975 23.5225 19.9725 24.1975 19.9775C24.315 19.9775 24.3525 19.9474 24.3525 19.8267C24.3475 18.9472 24.35 18.0677 24.35 17.1881C24.35 17.1404 24.35 17.0901 24.35 17.0298C24.4225 17.0298 24.475 17.0298 24.53 17.0298C25.4 17.0298 26.2725 17.0273 27.1425 17.0323C27.25 17.0323 27.285 17.0047 27.2825 16.8916C27.2775 16.1955 27.2775 15.5019 27.285 14.8058C27.285 14.6902 27.2525 14.66 27.1375 14.66C26.2625 14.6651 25.3875 14.6626 24.5125 14.6651C24.465 14.6626 24.415 14.6626 24.36 14.6626Z" fill="white"/>
</svg>
