<svg width="22" height="22" viewBox="0 0 22 22" fill="none" xmlns="http://www.w3.org/2000/svg">
<g clip-path="url(#clip0)">
<path d="M4.8125 15.125H0.6875C0.307495 15.125 0 14.8175 0 14.4375V2.0625C0 1.6825 0.307495 1.375 0.6875 1.375H4.8125C5.1925 1.375 5.5 1.6825 5.5 2.0625V14.4375C5.5 14.8175 5.1925 15.125 4.8125 15.125ZM4.125 2.75H1.375V13.75H4.125V2.75Z" fill="white"/>
<path d="M19.4608 13.7503H15.3989C15.0438 13.7503 14.8658 13.9873 14.8061 14.0893C14.7463 14.1907 14.6255 14.4613 14.7974 14.7715L16.2294 17.3503C16.5436 17.9149 16.5759 18.5789 16.3187 19.1717C16.0616 19.7652 15.554 20.1956 14.9263 20.352L13.9165 20.6045C13.6708 20.6662 13.4103 20.5877 13.2391 20.3977L7.75653 14.3069C7.18787 13.6737 6.875 12.8573 6.875 12.0074V6.18779C6.875 4.29246 8.41717 2.75029 10.3125 2.75029L17.1519 2.75096C18.6961 2.75096 20.0597 3.79094 20.4672 5.27941L21.9349 10.6398C21.9778 10.8271 22 11.0191 22 11.2111C22 12.611 20.8606 13.7503 19.4608 13.7503L19.4608 13.7503ZM20.6015 10.9768L19.1406 5.64262C18.8962 4.74967 18.0784 4.12528 17.1519 4.12528H10.3125C9.17517 4.12528 8.25 5.05045 8.25 6.18778V12.0074C8.25 12.5176 8.43799 13.0077 8.77906 13.3871L13.9843 19.1704L14.5926 19.0186C14.8021 18.9663 14.9713 18.8226 15.0572 18.6245C15.1431 18.4272 15.1324 18.2063 15.0276 18.0176L13.5956 15.4388C13.2371 14.7936 13.2465 14.0282 13.6211 13.3917C13.9957 12.7553 14.6604 12.3753 15.3989 12.3753H19.4608C20.1027 12.3753 20.625 11.8529 20.625 11.2111C20.625 11.1238 20.6149 11.0359 20.6015 10.9768V10.9768Z" fill="white"/>
</g>
<defs>
<clipPath id="clip0">
<rect width="22" height="22" transform="matrix(1 0 0 -1 0 22)" fill="white"/>
</clipPath>
</defs>
</svg>
