<svg width="15" height="15" viewBox="0 0 15 15" fill="none" xmlns="http://www.w3.org/2000/svg">
<path d="M7.57321 15C7.42128 15 7.28001 14.9215 7.19982 14.7923L3.01374 8.04645C2.4987 7.21465 2.22656 6.25588 2.22656 5.27344C2.22656 2.36566 4.59223 0 7.5 0C10.4078 0 12.7734 2.36566 12.7734 5.27344C12.7734 6.22673 12.5162 7.16098 12.0296 7.9752L7.95023 14.7863C7.87148 14.9178 7.72992 14.9988 7.5767 15C7.57553 15 7.57438 15 7.57321 15ZM7.5 0.878906C5.07686 0.878906 3.10547 2.85029 3.10547 5.27344C3.10547 6.09229 3.33205 6.89104 3.76078 7.58338L7.56659 13.7164L11.2754 7.52396C11.6803 6.84633 11.8945 6.068 11.8945 5.27344C11.8945 2.85029 9.92314 0.878906 7.5 0.878906Z" fill="#F69C38"/>
<path d="M7.5 7.91016C6.58017 7.91016 5.7409 7.44208 5.25495 6.6581C4.99863 6.24366 4.86328 5.76498 4.86328 5.27344C4.86328 3.81955 6.04611 2.63672 7.5 2.63672C8.95389 2.63672 10.1367 3.81955 10.1367 5.27344C10.1367 5.75051 10.0087 6.21706 9.76644 6.6227C9.28456 7.42893 8.43732 7.91016 7.5 7.91016ZM7.5 3.51562C6.53074 3.51562 5.74219 4.30418 5.74219 5.27344C5.74219 5.60156 5.8321 5.92037 6.0022 6.19541C6.32651 6.71865 6.88652 7.03125 7.5 7.03125C8.12511 7.03125 8.6903 6.71001 9.01192 6.17194C9.17276 5.90262 9.25781 5.59187 9.25781 5.27344C9.25781 4.30418 8.46926 3.51562 7.5 3.51562Z" fill="#F69C38"/>
</svg>
