<svg width="22" height="22" viewBox="0 0 22 22" fill="none" xmlns="http://www.w3.org/2000/svg">
<path d="M14.1395 22H11.8594C11.0287 22 10.3488 21.3417 10.3139 20.5194L9.02907 12.9709L1.48057 11.6861C0.658238 11.6512 0 10.9713 0 10.1406V7.86047C0 6.15298 1.15835 4.67696 2.8169 4.27107L20.0938 0.042863C20.0962 0.0422615 20.0986 0.0417029 20.101 0.0411443C20.6252 -0.0811878 21.1655 0.0730271 21.5462 0.45373C21.9269 0.834433 22.0812 1.37472 21.9589 1.89903C21.9583 1.90143 21.9578 1.90384 21.9572 1.90625L17.729 19.1831C17.323 20.8417 15.847 22 14.1395 22ZM20.4157 1.37962L3.14377 5.60667C2.10233 5.86152 1.375 6.78831 1.375 7.86047V10.1406C1.375 10.2354 1.45209 10.3125 1.54688 10.3125C1.58555 10.3125 1.62413 10.3157 1.66225 10.3222L9.74037 11.6972C10.0283 11.7462 10.2538 11.9718 10.3027 12.2596L11.6777 20.3377C11.6842 20.3759 11.6875 20.4144 11.6875 20.4531C11.6875 20.5479 11.7646 20.625 11.8594 20.625H14.1395C15.2117 20.625 16.1385 19.8977 16.3933 18.8562L20.6204 1.58424C20.6371 1.50861 20.6045 1.45649 20.574 1.42598C20.5435 1.39552 20.4913 1.36291 20.4157 1.37962Z" fill="#F69B37"/>
<path d="M9.62523 13.062C9.44928 13.062 9.27336 12.9949 9.13913 12.8606C8.87062 12.5922 8.87062 12.1569 9.13913 11.8884L16.0141 5.0134C16.2826 4.74488 16.7179 4.74488 16.9864 5.0134C17.2549 5.28186 17.2549 5.71718 16.9864 5.98565L10.1114 12.8606C9.9771 12.9949 9.80119 13.062 9.62523 13.062Z" fill="#F69B37"/>
</svg>
