<svg width="22" height="22" viewBox="0 0 22 22" fill="none" xmlns="http://www.w3.org/2000/svg">
<g clip-path="url(#clip0)">
<path d="M19.9748 2.76143H16.4771V0.644531C16.4771 0.288578 16.1885 0 15.8326 0H0.644531C0.288578 0 0 0.288578 0 0.644531V18.594C0 20.4721 1.52793 22 3.406 22C3.406 22 14.113 22 18.594 22C20.4751 22 22 20.4751 22 18.594V4.78668C22 3.66996 21.0915 2.76143 19.9748 2.76143ZM18.0869 4.05049C17.9966 4.28201 17.9495 4.53071 17.9495 4.78672V6.90366H16.4771V4.05054H18.0869V4.05049ZM3.406 20.7109C2.23871 20.7109 1.28906 19.7613 1.28906 18.594V1.28906H15.188V18.594C15.188 19.3943 15.4648 20.1296 15.9268 20.7109H3.406ZM20.7109 18.594C20.7109 19.7632 19.7632 20.7109 18.594 20.7109C17.6496 20.7109 16.85 20.0924 16.5773 19.2385H18.594C18.9499 19.2385 19.2385 18.9499 19.2385 18.594C19.2385 18.238 18.9499 17.9495 18.594 17.9495H16.4771V16.4771H18.594C18.9499 16.4771 19.2385 16.1885 19.2385 15.8325C19.2385 15.4766 18.9499 15.188 18.594 15.188H16.4771V13.7156H18.594C18.9499 13.7156 19.2385 13.427 19.2385 13.0711C19.2385 12.7151 18.9499 12.4265 18.594 12.4265H16.4771V10.9541H18.594C18.9499 10.9541 19.2385 10.6655 19.2385 10.3096C19.2385 9.95363 18.9499 9.66505 18.594 9.66505H16.4771V8.19264H18.594C18.9499 8.19264 19.2385 7.90406 19.2385 7.54811V4.78672C19.2385 4.38457 19.5637 4.05049 19.9747 4.05049C20.3806 4.05049 20.7109 4.38079 20.7109 4.78672V18.594H20.7109Z" fill="#F69B37"/>
<path d="M13.0711 2.76135H3.40601C3.05005 2.76135 2.76147 3.04993 2.76147 3.40588C2.76147 3.76184 3.05005 4.05041 3.40601 4.05041H13.0711C13.4271 4.05041 13.7156 3.76184 13.7156 3.40588C13.7156 3.04993 13.4271 2.76135 13.0711 2.76135Z" fill="#F69B37"/>
<path d="M13.071 12.4263H9.61914C9.26319 12.4263 8.97461 12.7148 8.97461 13.0708C8.97461 13.4268 9.26319 13.7153 9.61914 13.7153H13.071C13.4269 13.7153 13.7155 13.4268 13.7155 13.0708C13.7155 12.7148 13.4269 12.4263 13.071 12.4263Z" fill="#F69B37"/>
<path d="M6.85781 12.4263H3.40601C3.05005 12.4263 2.76147 12.7148 2.76147 13.0708C2.76147 13.4268 3.05005 13.7153 3.40601 13.7153H6.85781C7.21377 13.7153 7.50235 13.4268 7.50235 13.0708C7.50235 12.7148 7.21377 12.4263 6.85781 12.4263Z" fill="#F69B37"/>
<path d="M13.071 17.9496H9.61914C9.26319 17.9496 8.97461 18.2382 8.97461 18.5941C8.97461 18.9501 9.26319 19.2386 9.61914 19.2386H13.071C13.4269 19.2386 13.7155 18.9501 13.7155 18.5941C13.7155 18.2382 13.4269 17.9496 13.071 17.9496Z" fill="#F69B37"/>
<path d="M6.85781 17.9496H3.40601C3.05005 17.9496 2.76147 18.2382 2.76147 18.5941C2.76147 18.9501 3.05005 19.2386 3.40601 19.2386H6.85781C7.21377 19.2386 7.50235 18.9501 7.50235 18.5941C7.50235 18.2382 7.21377 17.9496 6.85781 17.9496Z" fill="#F69B37"/>
<path d="M13.071 15.1881H9.61914C9.26319 15.1881 8.97461 15.4767 8.97461 15.8326C8.97461 16.1886 9.26319 16.4772 9.61914 16.4772H13.071C13.4269 16.4772 13.7155 16.1886 13.7155 15.8326C13.7155 15.4767 13.4269 15.1881 13.071 15.1881Z" fill="#F69B37"/>
<path d="M6.85781 15.1881H3.40601C3.05005 15.1881 2.76147 15.4767 2.76147 15.8326C2.76147 16.1886 3.05005 16.4772 3.40601 16.4772H6.85781C7.21377 16.4772 7.50235 16.1886 7.50235 15.8326C7.50235 15.4767 7.21377 15.1881 6.85781 15.1881Z" fill="#F69B37"/>
<path d="M13.0711 5.52271H3.40601C3.05005 5.52271 2.76147 5.81128 2.76147 6.16724V10.3094C2.76147 10.6654 3.05005 10.954 3.40601 10.954H13.0711C13.4271 10.954 13.7156 10.6654 13.7156 10.3094V6.16724C13.7156 5.81128 13.4271 5.52271 13.0711 5.52271ZM12.4266 9.66494H4.05054V6.81181H12.4266V9.66494Z" fill="#F69B37"/>
</g>
<defs>
<clipPath id="clip0">
<rect width="22" height="22" fill="white"/>
</clipPath>
</defs>
</svg>
