<svg width="15" height="15" viewBox="0 0 15 15" fill="none" xmlns="http://www.w3.org/2000/svg">
<g clip-path="url(#clip0)">
<path d="M10.7809 15C10.2967 15 9.81664 14.9144 9.34717 14.7438C7.27896 13.9925 5.35921 12.7688 3.79541 11.2051C2.2316 9.64129 1.00792 7.72152 0.256637 5.6533C0.0152112 4.98864 -0.0560359 4.30254 0.0449463 3.61397C0.139542 2.969 0.389376 2.34286 0.767466 1.80324C1.14723 1.26124 1.65351 0.810435 2.23158 0.499579C2.84802 0.168099 3.52085 0 4.23144 0C4.45245 0 4.64346 0.154417 4.68978 0.370502L5.42551 3.80393C5.45882 3.9594 5.41104 4.12117 5.29863 4.23361L4.04146 5.49074C5.22741 7.84863 7.15178 9.77301 9.50968 10.959L10.7668 9.70179C10.8793 9.58938 11.041 9.54166 11.1965 9.57491L14.6299 10.3106C14.846 10.357 15.0004 10.548 15.0004 10.769C15.0004 11.4796 14.8323 12.1524 14.5008 12.7689C14.19 13.3469 13.7392 13.8532 13.1972 14.233C12.6576 14.6111 12.0314 14.8609 11.3864 14.9555C11.1843 14.9852 10.9822 15 10.7809 15ZM3.85693 0.957969C2.91961 1.06144 2.08768 1.55273 1.53522 2.34122C0.913973 3.22786 0.769106 4.31839 1.13776 5.33325C2.58216 9.30943 5.69104 12.4183 9.66723 13.8627C10.6821 14.2314 11.7726 14.0865 12.6593 13.4653C13.4477 12.9128 13.939 12.0809 14.0425 11.1435L11.2494 10.545L9.93651 11.858C9.7968 11.9977 9.58453 12.0348 9.40576 11.9508C6.61711 10.6407 4.35982 8.38337 3.04972 5.59471C2.96573 5.41592 3.00281 5.20364 3.14252 5.06396L4.45544 3.75105L3.85693 0.957969Z" fill="#F69C38"/>
</g>
<defs>
<clipPath id="clip0">
<rect width="15" height="15" fill="white"/>
</clipPath>
</defs>
</svg>
