<svg width="22" height="22" viewBox="0 0 22 22" fill="none" xmlns="http://www.w3.org/2000/svg">
<g clip-path="url(#clip0)">
<path d="M21.6984 6.47913C21.4385 6.25728 21.0718 6.21053 20.7644 6.36015L16.0618 8.64952L11.6492 3.56194C11.486 3.37373 11.2491 3.26562 11 3.26562C10.7509 3.26562 10.514 3.37373 10.3508 3.56194L5.93825 8.64948L1.23558 6.36011C0.92822 6.21053 0.561525 6.25724 0.301564 6.47909C0.0416032 6.70093 -0.0622093 7.05577 0.0371774 7.38276L3.3028 18.1249C3.41285 18.487 3.74667 18.7344 4.12501 18.7344H17.875C18.2533 18.7344 18.5872 18.487 18.6972 18.125L21.9628 7.3828C22.0622 7.05581 21.9584 6.70098 21.6984 6.47913ZM17.238 17.0156H4.76194L2.25467 8.76786L5.77905 10.4836C6.12899 10.654 6.54948 10.5679 6.80441 10.274L11 5.43662L15.1957 10.274C15.4505 10.568 15.8712 10.6539 16.221 10.4836L19.7454 8.76786L17.238 17.0156Z" fill="url(#paint0_linear)"/>
</g>
<defs>
<linearGradient id="paint0_linear" x1="11" y1="3.26562" x2="11" y2="18.7344" gradientUnits="userSpaceOnUse">
<stop stop-color="#F69C38"/>
<stop offset="1" stop-color="#F69B36"/>
</linearGradient>
<clipPath id="clip0">
<rect width="22" height="22" fill="white"/>
</clipPath>
</defs>
</svg>
